<svg width="360" height="800" viewBox="0 0 360 800" fill="none" xmlns="http://www.w3.org/2000/svg">
<rect width="360" height="800" fill="#F5F5F5"/>
<rect width="360" height="800" fill="black"/>
<rect x="19" y="16" width="319" height="38" rx="5" fill="white"/>
<path d="M35.4084 31.7464C35.3686 31.3454 35.1979 31.0339 34.8963 30.8118C34.5947 30.5897 34.1854 30.4787 33.6683 30.4787C33.317 30.4787 33.0204 30.5284 32.7784 30.6278C32.5365 30.724 32.3509 30.8582 32.2216 31.0305C32.0956 31.2029 32.0327 31.3984 32.0327 31.6172C32.026 31.7995 32.0642 31.9586 32.147 32.0945C32.2332 32.2304 32.3509 32.348 32.5 32.4474C32.6491 32.5436 32.8215 32.6281 33.017 32.701C33.2126 32.7706 33.4214 32.8303 33.6435 32.88L34.5582 33.0987C35.0024 33.1982 35.41 33.3307 35.7812 33.4964C36.1525 33.6622 36.474 33.866 36.7457 34.108C37.0175 34.3499 37.228 34.6349 37.3771 34.9631C37.5296 35.2912 37.6075 35.6674 37.6108 36.0916C37.6075 36.7147 37.4484 37.255 37.1335 37.7124C36.822 38.1664 36.3712 38.5194 35.7812 38.7713C35.1946 39.0199 34.487 39.1442 33.6584 39.1442C32.8364 39.1442 32.1205 39.0182 31.5107 38.7663C30.9041 38.5144 30.4302 38.1416 30.0888 37.6477C29.7507 37.1506 29.5734 36.5357 29.5568 35.8033H31.6399C31.6631 36.1446 31.7609 36.4297 31.9332 36.6584C32.1089 36.8838 32.3426 37.0545 32.6342 37.1705C32.9292 37.2831 33.2623 37.3395 33.6335 37.3395C33.9981 37.3395 34.3146 37.2865 34.5831 37.1804C34.8549 37.0743 35.0653 36.9268 35.2145 36.7379C35.3636 36.549 35.4382 36.3319 35.4382 36.0866C35.4382 35.858 35.3703 35.6657 35.2344 35.5099C35.1018 35.3542 34.9063 35.2216 34.6477 35.1122C34.3925 35.0028 34.0793 34.9034 33.7081 34.8139L32.5994 34.5355C31.741 34.3267 31.0632 34.0002 30.5661 33.5561C30.0689 33.112 29.822 32.5137 29.8253 31.7614C29.822 31.1449 29.986 30.6063 30.3175 30.1456C30.6522 29.6849 31.1113 29.3253 31.6946 29.0668C32.2779 28.8082 32.9408 28.679 33.6832 28.679C34.4389 28.679 35.0985 28.8082 35.6619 29.0668C36.2287 29.3253 36.6695 29.6849 36.9844 30.1456C37.2992 30.6063 37.4616 31.1399 37.4716 31.7464H35.4084ZM42.4991 39.1491C41.7136 39.1491 41.0375 38.9901 40.4707 38.6719C39.9073 38.3504 39.4731 37.8963 39.1681 37.3097C38.8632 36.7197 38.7108 36.022 38.7108 35.2166C38.7108 34.4311 38.8632 33.7417 39.1681 33.1484C39.4731 32.5552 39.9023 32.0928 40.4558 31.7614C41.0126 31.4299 41.6655 31.2642 42.4146 31.2642C42.9184 31.2642 43.3874 31.3454 43.8216 31.5078C44.2591 31.6669 44.6402 31.9072 44.965 32.2287C45.2931 32.5502 45.5484 32.9545 45.7306 33.4418C45.9129 33.9257 46.0041 34.4924 46.0041 35.142V35.7237H39.5559V34.4112H44.0105C44.0105 34.1063 43.9442 33.8362 43.8116 33.6009C43.679 33.3655 43.4951 33.1816 43.2598 33.049C43.0278 32.9131 42.7576 32.8452 42.4494 32.8452C42.1279 32.8452 41.8429 32.9197 41.5943 33.0689C41.349 33.2147 41.1568 33.4119 41.0176 33.6605C40.8784 33.9058 40.8071 34.1792 40.8038 34.4808V35.7287C40.8038 36.1065 40.8734 36.433 41.0126 36.7081C41.1551 36.9832 41.3556 37.1953 41.6142 37.3445C41.8727 37.4936 42.1793 37.5682 42.5339 37.5682C42.7692 37.5682 42.9847 37.535 43.1802 37.4688C43.3758 37.4025 43.5431 37.303 43.6824 37.1705C43.8216 37.0379 43.9276 36.8755 44.0005 36.6832L45.9593 36.8125C45.8599 37.2831 45.6561 37.6941 45.3478 38.0455C45.0429 38.3935 44.6485 38.6652 44.1646 38.8608C43.684 39.053 43.1288 39.1491 42.4991 39.1491ZM49.5637 39.1442C49.0765 39.1442 48.6423 39.0597 48.2612 38.8906C47.88 38.7183 47.5784 38.4647 47.3564 38.13C47.1376 37.7919 47.0282 37.371 47.0282 36.8672C47.0282 36.4429 47.1061 36.0866 47.2619 35.7983C47.4177 35.5099 47.6298 35.2779 47.8983 35.1023C48.1667 34.9266 48.4717 34.794 48.813 34.7045C49.1577 34.6151 49.519 34.5521 49.8968 34.5156C50.341 34.4692 50.6989 34.4261 50.9707 34.3864C51.2425 34.3433 51.4397 34.2803 51.5623 34.1974C51.685 34.1146 51.7463 33.992 51.7463 33.8295V33.7997C51.7463 33.4848 51.6468 33.2412 51.448 33.0689C51.2524 32.8965 50.974 32.8104 50.6127 32.8104C50.2316 32.8104 49.9283 32.8949 49.7029 33.0639C49.4776 33.2296 49.3284 33.4384 49.2555 33.6903L47.2967 33.5312C47.3961 33.0672 47.5917 32.6662 47.8833 32.3281C48.175 31.9867 48.5512 31.7249 49.0119 31.5426C49.4759 31.357 50.0128 31.2642 50.6227 31.2642C51.0469 31.2642 51.4529 31.3139 51.8407 31.4134C52.2318 31.5128 52.5782 31.6669 52.8798 31.8757C53.1847 32.0845 53.425 32.353 53.6007 32.6811C53.7763 33.0059 53.8642 33.3954 53.8642 33.8494V39H51.8556V37.9411H51.796C51.6734 38.1797 51.5093 38.3902 51.3038 38.5724C51.0983 38.7514 50.8514 38.8923 50.563 38.995C50.2747 39.0945 49.9416 39.1442 49.5637 39.1442ZM50.1703 37.6825C50.4818 37.6825 50.7569 37.6212 50.9956 37.4986C51.2342 37.3726 51.4215 37.2036 51.5574 36.9915C51.6932 36.7794 51.7612 36.5391 51.7612 36.2706V35.4602C51.6949 35.5033 51.6038 35.5431 51.4877 35.5795C51.3751 35.6127 51.2475 35.6442 51.1049 35.674C50.9624 35.7005 50.8199 35.7254 50.6774 35.7486C50.5349 35.7685 50.4056 35.7867 50.2896 35.8033C50.041 35.8397 49.8239 35.8977 49.6383 35.9773C49.4527 36.0568 49.3085 36.1645 49.2058 36.3004C49.103 36.433 49.0517 36.5987 49.0517 36.7976C49.0517 37.0859 49.1561 37.3063 49.3649 37.4588C49.577 37.608 49.8455 37.6825 50.1703 37.6825ZM55.5073 39V31.3636H57.5605V32.696H57.6401C57.7793 32.2221 58.013 31.8641 58.3411 31.6222C58.6692 31.3769 59.0471 31.2543 59.4746 31.2543C59.5807 31.2543 59.695 31.2609 59.8176 31.2741C59.9403 31.2874 60.048 31.3056 60.1408 31.3288V33.2081C60.0414 33.1783 59.9038 33.1518 59.7282 33.1286C59.5525 33.1054 59.3917 33.0938 59.2459 33.0938C58.9344 33.0938 58.656 33.1617 58.4107 33.2976C58.1687 33.4302 57.9765 33.6158 57.834 33.8544C57.6948 34.093 57.6252 34.3681 57.6252 34.6797V39H55.5073ZM64.3306 39.1491C63.5484 39.1491 62.8756 38.9834 62.3121 38.652C61.752 38.3172 61.3211 37.8532 61.0195 37.2599C60.7212 36.6667 60.5721 35.9839 60.5721 35.2116C60.5721 34.4295 60.7229 33.7434 61.0245 33.1534C61.3294 32.5601 61.762 32.0978 62.3221 31.7663C62.8822 31.4316 63.5484 31.2642 64.3207 31.2642C64.9869 31.2642 65.5702 31.3852 66.0707 31.6271C66.5711 31.8691 66.9672 32.2088 67.2589 32.6463C67.5505 33.0838 67.7113 33.5975 67.7411 34.1875H65.7425C65.6862 33.8063 65.5371 33.4998 65.2951 33.2678C65.0565 33.0324 64.7433 32.9148 64.3555 32.9148C64.0273 32.9148 63.7406 33.0043 63.4954 33.1832C63.2534 33.3589 63.0645 33.6158 62.9286 33.9538C62.7927 34.2919 62.7248 34.7012 62.7248 35.1818C62.7248 35.669 62.7911 36.0833 62.9237 36.4247C63.0595 36.7661 63.2501 37.0263 63.4954 37.2053C63.7406 37.3842 64.0273 37.4737 64.3555 37.4737C64.5974 37.4737 64.8145 37.424 65.0067 37.3246C65.2023 37.2251 65.363 37.081 65.489 36.892C65.6183 36.6998 65.7028 36.4695 65.7425 36.201H67.7411C67.708 36.7843 67.5489 37.2981 67.2638 37.7422C66.9821 38.183 66.5927 38.5277 66.0955 38.7763C65.5984 39.0249 65.0101 39.1491 64.3306 39.1491ZM71.215 34.5852V39H69.0971V28.8182H71.1554V32.7109H71.2449C71.4172 32.2602 71.6956 31.9072 72.0801 31.652C72.4645 31.3935 72.9468 31.2642 73.5268 31.2642C74.0571 31.2642 74.5195 31.3802 74.9139 31.6122C75.3116 31.8409 75.6199 32.1707 75.8386 32.6016C76.0607 33.0291 76.17 33.5412 76.1667 34.1378V39H74.0488V34.5156C74.0521 34.045 73.9328 33.6787 73.6909 33.4169C73.4522 33.1551 73.1175 33.0241 72.6866 33.0241C72.3983 33.0241 72.1431 33.0855 71.921 33.2081C71.7022 33.3307 71.5299 33.5097 71.4039 33.745C71.2813 33.977 71.2183 34.2571 71.215 34.5852ZM83.2512 39.1442C82.764 39.1442 82.3298 39.0597 81.9487 38.8906C81.5675 38.7183 81.2659 38.4647 81.0439 38.13C80.8251 37.7919 80.7157 37.371 80.7157 36.8672C80.7157 36.4429 80.7936 36.0866 80.9494 35.7983C81.1052 35.5099 81.3173 35.2779 81.5858 35.1023C81.8542 34.9266 82.1592 34.794 82.5005 34.7045C82.8452 34.6151 83.2065 34.5521 83.5843 34.5156C84.0285 34.4692 84.3864 34.4261 84.6582 34.3864C84.93 34.3433 85.1272 34.2803 85.2498 34.1974C85.3725 34.1146 85.4338 33.992 85.4338 33.8295V33.7997C85.4338 33.4848 85.3343 33.2412 85.1355 33.0689C84.9399 32.8965 84.6615 32.8104 84.3002 32.8104C83.9191 32.8104 83.6158 32.8949 83.3904 33.0639C83.1651 33.2296 83.0159 33.4384 82.943 33.6903L80.9842 33.5312C81.0836 33.0672 81.2792 32.6662 81.5708 32.3281C81.8625 31.9867 82.2387 31.7249 82.6994 31.5426C83.1634 31.357 83.7003 31.2642 84.3102 31.2642C84.7344 31.2642 85.1404 31.3139 85.5282 31.4134C85.9193 31.5128 86.2657 31.6669 86.5673 31.8757C86.8722 32.0845 87.1125 32.353 87.2882 32.6811C87.4638 33.0059 87.5517 33.3954 87.5517 33.8494V39H85.5431V37.9411H85.4835C85.3609 38.1797 85.1968 38.3902 84.9913 38.5724C84.7858 38.7514 84.5389 38.8923 84.2505 38.995C83.9622 39.0945 83.6291 39.1442 83.2512 39.1442ZM83.8578 37.6825C84.1693 37.6825 84.4444 37.6212 84.6831 37.4986C84.9217 37.3726 85.109 37.2036 85.2449 36.9915C85.3807 36.7794 85.4487 36.5391 85.4487 36.2706V35.4602C85.3824 35.5033 85.2913 35.5431 85.1752 35.5795C85.0626 35.6127 84.935 35.6442 84.7924 35.674C84.6499 35.7005 84.5074 35.7254 84.3649 35.7486C84.2224 35.7685 84.0931 35.7867 83.9771 35.8033C83.7285 35.8397 83.5114 35.8977 83.3258 35.9773C83.1402 36.0568 82.996 36.1645 82.8933 36.3004C82.7905 36.433 82.7392 36.5987 82.7392 36.7976C82.7392 37.0859 82.8436 37.3063 83.0524 37.4588C83.2645 37.608 83.533 37.6825 83.8578 37.6825ZM91.3127 34.5852V39H89.1948V31.3636H91.2132V32.7109H91.3027C91.4718 32.2668 91.7551 31.9155 92.1529 31.657C92.5506 31.3951 93.0328 31.2642 93.5996 31.2642C94.1299 31.2642 94.5923 31.3802 94.9867 31.6122C95.3811 31.8442 95.6877 32.1757 95.9064 32.6065C96.1252 33.0341 96.2346 33.5445 96.2346 34.1378V39H94.1167V34.5156C94.12 34.0483 94.0007 33.6837 93.7587 33.4219C93.5167 33.1567 93.1837 33.0241 92.7594 33.0241C92.4744 33.0241 92.2225 33.0855 92.0037 33.2081C91.7883 33.3307 91.6193 33.5097 91.4966 33.745C91.3773 33.977 91.316 34.2571 91.3127 34.5852ZM98.9379 41.8636C98.6694 41.8636 98.4175 41.8421 98.1822 41.799C97.9502 41.7592 97.7579 41.7079 97.6055 41.6449L98.0827 40.0639C98.3313 40.1402 98.555 40.1816 98.7539 40.1882C98.9561 40.1948 99.1301 40.1484 99.2759 40.049C99.4251 39.9496 99.546 39.7805 99.6388 39.5419L99.7631 39.2188L97.0238 31.3636H99.2511L100.832 36.9716H100.912L102.507 31.3636H104.75L101.782 39.8253C101.639 40.2363 101.445 40.5942 101.2 40.8991C100.958 41.2074 100.651 41.4444 100.28 41.6101C99.909 41.7791 99.4615 41.8636 98.9379 41.8636ZM109.895 31.3636V32.9545H105.297V31.3636H109.895ZM106.341 29.5341H108.458V36.6534C108.458 36.849 108.488 37.0014 108.548 37.1108C108.608 37.2169 108.69 37.2914 108.797 37.3345C108.906 37.3776 109.032 37.3991 109.174 37.3991C109.274 37.3991 109.373 37.3909 109.473 37.3743C109.572 37.3544 109.648 37.3395 109.701 37.3295L110.034 38.9055C109.928 38.9387 109.779 38.9768 109.587 39.0199C109.395 39.0663 109.161 39.0945 108.886 39.1044C108.376 39.1243 107.928 39.0563 107.544 38.9006C107.163 38.7448 106.866 38.5028 106.654 38.1747C106.442 37.8466 106.337 37.4323 106.341 36.9318V29.5341ZM113.557 34.5852V39H111.439V28.8182H113.497V32.7109H113.587C113.759 32.2602 114.037 31.9072 114.422 31.652C114.806 31.3935 115.289 31.2642 115.869 31.2642C116.399 31.2642 116.861 31.3802 117.256 31.6122C117.653 31.8409 117.962 32.1707 118.18 32.6016C118.402 33.0291 118.512 33.5412 118.509 34.1378V39H116.391V34.5156C116.394 34.045 116.275 33.6787 116.033 33.4169C115.794 33.1551 115.459 33.0241 115.028 33.0241C114.74 33.0241 114.485 33.0855 114.263 33.2081C114.044 33.3307 113.872 33.5097 113.746 33.745C113.623 33.977 113.56 34.2571 113.557 34.5852ZM120.175 39V31.3636H122.293V39H120.175ZM121.239 30.3793C120.924 30.3793 120.654 30.2749 120.429 30.0661C120.207 29.8539 120.096 29.6004 120.096 29.3054C120.096 29.0137 120.207 28.7635 120.429 28.5547C120.654 28.3426 120.924 28.2365 121.239 28.2365C121.554 28.2365 121.823 28.3426 122.045 28.5547C122.27 28.7635 122.383 29.0137 122.383 29.3054C122.383 29.6004 122.27 29.8539 122.045 30.0661C121.823 30.2749 121.554 30.3793 121.239 30.3793ZM126.108 34.5852V39H123.99V31.3636H126.008V32.7109H126.098C126.267 32.2668 126.55 31.9155 126.948 31.657C127.346 31.3951 127.828 31.2642 128.395 31.2642C128.925 31.2642 129.387 31.3802 129.782 31.6122C130.176 31.8442 130.483 32.1757 130.701 32.6065C130.92 33.0341 131.029 33.5445 131.029 34.1378V39H128.912V34.5156C128.915 34.0483 128.796 33.6837 128.554 33.4219C128.312 33.1567 127.979 33.0241 127.554 33.0241C127.269 33.0241 127.017 33.0855 126.799 33.2081C126.583 33.3307 126.414 33.5097 126.292 33.745C126.172 33.977 126.111 34.2571 126.108 34.5852ZM136.139 42.0227C135.453 42.0227 134.865 41.9283 134.374 41.7393C133.887 41.5537 133.499 41.3002 133.211 40.9787C132.922 40.6572 132.735 40.2959 132.649 39.8949L134.608 39.6314C134.667 39.7839 134.762 39.9264 134.891 40.0589C135.02 40.1915 135.191 40.2976 135.403 40.3771C135.619 40.46 135.881 40.5014 136.189 40.5014C136.649 40.5014 137.029 40.3887 137.327 40.1634C137.629 39.9413 137.78 39.5684 137.78 39.0447V37.6477H137.69C137.597 37.8598 137.458 38.0604 137.273 38.2493C137.087 38.4382 136.848 38.5923 136.557 38.7116C136.265 38.831 135.917 38.8906 135.513 38.8906C134.939 38.8906 134.417 38.758 133.947 38.4929C133.479 38.2244 133.106 37.8151 132.828 37.2649C132.553 36.7114 132.415 36.0121 132.415 35.1669C132.415 34.3018 132.556 33.5793 132.838 32.9993C133.12 32.4193 133.494 31.9851 133.961 31.6967C134.432 31.4084 134.948 31.2642 135.508 31.2642C135.935 31.2642 136.293 31.3371 136.581 31.483C136.87 31.6255 137.102 31.8045 137.278 32.0199C137.456 32.232 137.594 32.4408 137.69 32.6463H137.77V31.3636H139.873V39.0746C139.873 39.7242 139.714 40.2678 139.395 40.7053C139.077 41.1428 138.636 41.4709 138.073 41.6896C137.513 41.9117 136.868 42.0227 136.139 42.0227ZM136.184 37.2997C136.525 37.2997 136.814 37.2152 137.049 37.0462C137.287 36.8738 137.47 36.6286 137.596 36.3104C137.725 35.9889 137.79 35.6044 137.79 35.157C137.79 34.7095 137.727 34.3217 137.601 33.9936C137.475 33.6622 137.292 33.4053 137.054 33.223C136.815 33.0407 136.525 32.9496 136.184 32.9496C135.836 32.9496 135.542 33.044 135.304 33.233C135.065 33.4186 134.885 33.6771 134.762 34.0085C134.639 34.34 134.578 34.7228 134.578 35.157C134.578 35.5978 134.639 35.9789 134.762 36.3004C134.888 36.6186 135.068 36.8655 135.304 37.0412C135.542 37.2135 135.836 37.2997 136.184 37.2997ZM146.916 34.5852V39H144.798V28.8182H146.857V32.7109H146.946C147.118 32.2602 147.397 31.9072 147.781 31.652C148.166 31.3935 148.648 31.2642 149.228 31.2642C149.758 31.2642 150.221 31.3802 150.615 31.6122C151.013 31.8409 151.321 32.1707 151.54 32.6016C151.762 33.0291 151.871 33.5412 151.868 34.1378V39H149.75V34.5156C149.753 34.045 149.634 33.6787 149.392 33.4169C149.153 33.1551 148.819 33.0241 148.388 33.0241C148.099 33.0241 147.844 33.0855 147.622 33.2081C147.403 33.3307 147.231 33.5097 147.105 33.745C146.982 33.977 146.92 34.2571 146.916 34.5852ZM157.015 39.1491C156.229 39.1491 155.553 38.9901 154.986 38.6719C154.423 38.3504 153.989 37.8963 153.684 37.3097C153.379 36.7197 153.226 36.022 153.226 35.2166C153.226 34.4311 153.379 33.7417 153.684 33.1484C153.989 32.5552 154.418 32.0928 154.971 31.7614C155.528 31.4299 156.181 31.2642 156.93 31.2642C157.434 31.2642 157.903 31.3454 158.337 31.5078C158.775 31.6669 159.156 31.9072 159.481 32.2287C159.809 32.5502 160.064 32.9545 160.246 33.4418C160.429 33.9257 160.52 34.4924 160.52 35.142V35.7237H154.072V34.4112H158.526C158.526 34.1063 158.46 33.8362 158.327 33.6009C158.195 33.3655 158.011 33.1816 157.775 33.049C157.543 32.9131 157.273 32.8452 156.965 32.8452C156.644 32.8452 156.358 32.9197 156.11 33.0689C155.865 33.2147 155.672 33.4119 155.533 33.6605C155.394 33.9058 155.323 34.1792 155.319 34.4808V35.7287C155.319 36.1065 155.389 36.433 155.528 36.7081C155.671 36.9832 155.871 37.1953 156.13 37.3445C156.388 37.4936 156.695 37.5682 157.05 37.5682C157.285 37.5682 157.5 37.535 157.696 37.4688C157.891 37.4025 158.059 37.303 158.198 37.1705C158.337 37.0379 158.443 36.8755 158.516 36.6832L160.475 36.8125C160.376 37.2831 160.172 37.6941 159.863 38.0455C159.559 38.3935 159.164 38.6652 158.68 38.8608C158.2 39.053 157.644 39.1491 157.015 39.1491ZM161.902 39V31.3636H163.955V32.696H164.035C164.174 32.2221 164.407 31.8641 164.736 31.6222C165.064 31.3769 165.442 31.2543 165.869 31.2543C165.975 31.2543 166.09 31.2609 166.212 31.2741C166.335 31.2874 166.443 31.3056 166.535 31.3288V33.2081C166.436 33.1783 166.298 33.1518 166.123 33.1286C165.947 33.1054 165.786 33.0938 165.64 33.0938C165.329 33.0938 165.05 33.1617 164.805 33.2976C164.563 33.4302 164.371 33.6158 164.229 33.8544C164.089 34.093 164.02 34.3681 164.02 34.6797V39H161.902ZM170.755 39.1491C169.969 39.1491 169.293 38.9901 168.727 38.6719C168.163 38.3504 167.729 37.8963 167.424 37.3097C167.119 36.7197 166.967 36.022 166.967 35.2166C166.967 34.4311 167.119 33.7417 167.424 33.1484C167.729 32.5552 168.158 32.0928 168.712 31.7614C169.268 31.4299 169.921 31.2642 170.67 31.2642C171.174 31.2642 171.643 31.3454 172.077 31.5078C172.515 31.6669 172.896 31.9072 173.221 32.2287C173.549 32.5502 173.804 32.9545 173.987 33.4418C174.169 33.9257 174.26 34.4924 174.26 35.142V35.7237H167.812V34.4112H172.266C172.266 34.1063 172.2 33.8362 172.067 33.6009C171.935 33.3655 171.751 33.1816 171.516 33.049C171.284 32.9131 171.013 32.8452 170.705 32.8452C170.384 32.8452 170.099 32.9197 169.85 33.0689C169.605 33.2147 169.413 33.4119 169.273 33.6605C169.134 33.9058 169.063 34.1792 169.06 34.4808V35.7287C169.06 36.1065 169.129 36.433 169.268 36.7081C169.411 36.9832 169.612 37.1953 169.87 37.3445C170.129 37.4936 170.435 37.5682 170.79 37.5682C171.025 37.5682 171.241 37.535 171.436 37.4688C171.632 37.4025 171.799 37.303 171.938 37.1705C172.077 37.0379 172.183 36.8755 172.256 36.6832L174.215 36.8125C174.116 37.2831 173.912 37.6941 173.604 38.0455C173.299 38.3935 172.904 38.6652 172.42 38.8608C171.94 39.053 171.385 39.1491 170.755 39.1491ZM176.88 39.1293C176.552 39.1293 176.27 39.0133 176.035 38.7812C175.803 38.5459 175.687 38.2642 175.687 37.9361C175.687 37.6113 175.803 37.3329 176.035 37.1009C176.27 36.8688 176.552 36.7528 176.88 36.7528C177.198 36.7528 177.477 36.8688 177.715 37.1009C177.954 37.3329 178.073 37.6113 178.073 37.9361C178.073 38.1548 178.017 38.3554 177.904 38.5376C177.795 38.7166 177.651 38.8608 177.472 38.9702C177.293 39.0762 177.095 39.1293 176.88 39.1293ZM181.05 39.1293C180.722 39.1293 180.44 39.0133 180.205 38.7812C179.973 38.5459 179.857 38.2642 179.857 37.9361C179.857 37.6113 179.973 37.3329 180.205 37.1009C180.44 36.8688 180.722 36.7528 181.05 36.7528C181.368 36.7528 181.646 36.8688 181.885 37.1009C182.124 37.3329 182.243 37.6113 182.243 37.9361C182.243 38.1548 182.187 38.3554 182.074 38.5376C181.965 38.7166 181.82 38.8608 181.642 38.9702C181.463 39.0762 181.265 39.1293 181.05 39.1293ZM185.22 39.1293C184.892 39.1293 184.61 39.0133 184.375 38.7812C184.143 38.5459 184.027 38.2642 184.027 37.9361C184.027 37.6113 184.143 37.3329 184.375 37.1009C184.61 36.8688 184.892 36.7528 185.22 36.7528C185.538 36.7528 185.816 36.8688 186.055 37.1009C186.294 37.3329 186.413 37.6113 186.413 37.9361C186.413 38.1548 186.357 38.3554 186.244 38.5376C186.135 38.7166 185.99 38.8608 185.811 38.9702C185.632 39.0762 185.435 39.1293 185.22 39.1293ZM189.39 39.1293C189.062 39.1293 188.78 39.0133 188.545 38.7812C188.313 38.5459 188.197 38.2642 188.197 37.9361C188.197 37.6113 188.313 37.3329 188.545 37.1009C188.78 36.8688 189.062 36.7528 189.39 36.7528C189.708 36.7528 189.986 36.8688 190.225 37.1009C190.464 37.3329 190.583 37.6113 190.583 37.9361C190.583 38.1548 190.527 38.3554 190.414 38.5376C190.305 38.7166 190.16 38.8608 189.981 38.9702C189.802 39.0762 189.605 39.1293 189.39 39.1293ZM193.56 39.1293C193.232 39.1293 192.95 39.0133 192.714 38.7812C192.482 38.5459 192.366 38.2642 192.366 37.9361C192.366 37.6113 192.482 37.3329 192.714 37.1009C192.95 36.8688 193.232 36.7528 193.56 36.7528C193.878 36.7528 194.156 36.8688 194.395 37.1009C194.634 37.3329 194.753 37.6113 194.753 37.9361C194.753 38.1548 194.696 38.3554 194.584 38.5376C194.474 38.7166 194.33 38.8608 194.151 38.9702C193.972 39.0762 193.775 39.1293 193.56 39.1293Z" fill="black"/>
<rect x="219.298" y="121.386" width="99.7015" height="79" fill="#D9D9D9"/>
<line y1="-0.5" x2="127.206" y2="-0.5" transform="matrix(-0.783779 -0.621039 0.271789 -0.962357 319 200.386)" stroke="black"/>
<path d="M219 200.886L318.87 120.936" stroke="black"/>
<rect x="19.2985" y="235.389" width="99.7015" height="79.1713" fill="#D9D9D9"/>
<line y1="-0.5" x2="127.313" y2="-0.5" transform="matrix(-0.783124 -0.621866 0.271244 -0.962511 119 314.561)" stroke="black"/>
<path d="M19 315.062L118.87 234.938" stroke="black"/>
<rect x="19.2985" y="123.386" width="99.7015" height="79" fill="#D9D9D9"/>
<line y1="-0.5" x2="127.206" y2="-0.5" transform="matrix(-0.783779 -0.621039 0.271789 -0.962357 119 202.386)" stroke="black"/>
<path d="M19 202.886L118.87 122.936" stroke="black"/>
<rect x="219.298" y="234.386" width="99.7015" height="79" fill="#D9D9D9"/>
<line y1="-0.5" x2="127.206" y2="-0.5" transform="matrix(-0.783779 -0.621039 0.271789 -0.962357 319 313.386)" stroke="black"/>
<path d="M219 313.886L318.87 233.936" stroke="black"/>
<path d="M89.1165 70.5455V88H85.929L78.3352 77.0142H78.2074V88H74.517V70.5455H77.7557L85.2898 81.5227H85.4432V70.5455H89.1165ZM98.0632 88.2557C96.7166 88.2557 95.5575 87.983 94.5859 87.4375C93.62 86.8864 92.8757 86.108 92.353 85.1023C91.8303 84.0909 91.5689 82.8949 91.5689 81.5142C91.5689 80.1676 91.8303 78.9858 92.353 77.9688C92.8757 76.9517 93.6115 76.1591 94.5604 75.5909C95.5149 75.0227 96.6342 74.7386 97.9183 74.7386C98.782 74.7386 99.5859 74.8778 100.33 75.1562C101.08 75.429 101.734 75.8409 102.29 76.392C102.853 76.9432 103.29 77.6364 103.603 78.4716C103.915 79.3011 104.072 80.2727 104.072 81.3864V82.3835H93.0178V80.1335H100.654C100.654 79.6108 100.54 79.1477 100.313 78.7443C100.086 78.3409 99.7706 78.0256 99.3672 77.7983C98.9695 77.5653 98.5064 77.4489 97.978 77.4489C97.4268 77.4489 96.9382 77.5767 96.5121 77.8324C96.0916 78.0824 95.7621 78.4205 95.5234 78.8466C95.2848 79.267 95.1626 79.7358 95.157 80.2528V82.392C95.157 83.0398 95.2763 83.5994 95.5149 84.071C95.7592 84.5426 96.103 84.9062 96.5462 85.1619C96.9893 85.4176 97.5149 85.5455 98.1229 85.5455C98.5263 85.5455 98.8956 85.4886 99.2308 85.375C99.5661 85.2614 99.853 85.0909 100.092 84.8636C100.33 84.6364 100.512 84.358 100.637 84.0284L103.995 84.25C103.825 85.0568 103.475 85.7614 102.947 86.3636C102.424 86.9602 101.748 87.4261 100.918 87.7614C100.094 88.0909 99.1428 88.2557 98.0632 88.2557ZM108.93 88L105.367 74.9091H109.04L111.069 83.7045H111.188L113.302 74.9091H116.907L119.055 83.6534H119.165L121.16 74.9091H124.825L121.271 88H117.427L115.177 79.767H115.015L112.765 88H108.93ZM136.049 88.2472C135.214 88.2472 134.469 88.1023 133.816 87.8125C133.163 87.517 132.646 87.0824 132.265 86.5085C131.89 85.929 131.702 85.2074 131.702 84.3438C131.702 83.6165 131.836 83.0057 132.103 82.5114C132.37 82.017 132.734 81.6193 133.194 81.3182C133.654 81.017 134.177 80.7898 134.762 80.6364C135.353 80.483 135.972 80.375 136.62 80.3125C137.381 80.233 137.995 80.1591 138.461 80.0909C138.927 80.017 139.265 79.9091 139.475 79.767C139.685 79.625 139.79 79.4148 139.79 79.1364V79.0852C139.79 78.5455 139.62 78.1278 139.279 77.8324C138.944 77.5369 138.467 77.3892 137.847 77.3892C137.194 77.3892 136.674 77.5341 136.288 77.8239C135.901 78.108 135.646 78.4659 135.521 78.8977L132.163 78.625C132.333 77.8295 132.668 77.142 133.168 76.5625C133.668 75.9773 134.313 75.5284 135.103 75.2159C135.898 74.8977 136.819 74.7386 137.864 74.7386C138.592 74.7386 139.288 74.8239 139.952 74.9943C140.623 75.1648 141.217 75.429 141.734 75.7869C142.256 76.1449 142.668 76.6051 142.969 77.1676C143.271 77.7244 143.421 78.392 143.421 79.1705V88H139.978V86.1847H139.876C139.665 86.5938 139.384 86.9545 139.032 87.267C138.68 87.5739 138.256 87.8153 137.762 87.9915C137.268 88.1619 136.697 88.2472 136.049 88.2472ZM137.089 85.7415C137.623 85.7415 138.094 85.6364 138.504 85.4261C138.913 85.2102 139.234 84.9205 139.467 84.5568C139.7 84.1932 139.816 83.7812 139.816 83.321V81.9318C139.702 82.0057 139.546 82.0739 139.347 82.1364C139.154 82.1932 138.935 82.2472 138.691 82.2983C138.447 82.3437 138.202 82.3864 137.958 82.4261C137.714 82.4602 137.492 82.4915 137.293 82.5199C136.867 82.5824 136.495 82.6818 136.177 82.8182C135.859 82.9545 135.612 83.1392 135.435 83.3722C135.259 83.5994 135.171 83.8835 135.171 84.2244C135.171 84.7188 135.35 85.0966 135.708 85.358C136.072 85.6136 136.532 85.7415 137.089 85.7415ZM149.869 80.4318V88H146.238V74.9091H149.698V77.2188H149.852C150.141 76.4574 150.627 75.8551 151.309 75.4119C151.991 74.9631 152.817 74.7386 153.789 74.7386C154.698 74.7386 155.491 74.9375 156.167 75.3352C156.843 75.733 157.369 76.3011 157.744 77.0398C158.119 77.7727 158.306 78.6477 158.306 79.6648V88H154.675V80.3125C154.681 79.5114 154.477 78.8864 154.062 78.4375C153.647 77.983 153.076 77.7557 152.349 77.7557C151.86 77.7557 151.428 77.8608 151.053 78.071C150.684 78.2812 150.394 78.5881 150.184 78.9915C149.979 79.3892 149.874 79.8693 149.869 80.4318ZM165.991 88.2131C164.997 88.2131 164.097 87.9574 163.29 87.446C162.489 86.929 161.852 86.1705 161.381 85.1705C160.915 84.1648 160.682 82.9318 160.682 81.4716C160.682 79.9716 160.923 78.7244 161.406 77.7301C161.889 76.7301 162.531 75.983 163.332 75.4886C164.139 74.9886 165.023 74.7386 165.983 74.7386C166.716 74.7386 167.327 74.8636 167.815 75.1136C168.31 75.358 168.707 75.6648 169.009 76.0341C169.315 76.3977 169.548 76.7557 169.707 77.108H169.818V70.5455H173.44V88H169.861V85.9034H169.707C169.537 86.267 169.295 86.6278 168.983 86.9858C168.676 87.3381 168.276 87.6307 167.781 87.8636C167.293 88.0966 166.696 88.2131 165.991 88.2131ZM167.142 85.3239C167.727 85.3239 168.222 85.1648 168.625 84.8466C169.034 84.5227 169.347 84.071 169.562 83.4915C169.784 82.9119 169.895 82.233 169.895 81.4545C169.895 80.6761 169.787 80 169.571 79.4261C169.355 78.8523 169.043 78.4091 168.634 78.0966C168.224 77.7841 167.727 77.6278 167.142 77.6278C166.545 77.6278 166.043 77.7898 165.634 78.1136C165.224 78.4375 164.915 78.8864 164.705 79.4602C164.494 80.0341 164.389 80.6989 164.389 81.4545C164.389 82.2159 164.494 82.8892 164.705 83.4744C164.92 84.054 165.23 84.5085 165.634 84.8381C166.043 85.1619 166.545 85.3239 167.142 85.3239ZM181.384 73.5881V70.5455H195.719V73.5881H190.375V88H186.727V73.5881H181.384ZM196.652 88V74.9091H200.172V77.1932H200.308C200.547 76.3807 200.947 75.767 201.51 75.3523C202.072 74.9318 202.72 74.7216 203.453 74.7216C203.635 74.7216 203.831 74.733 204.041 74.7557C204.251 74.7784 204.436 74.8097 204.595 74.8494V78.071C204.425 78.0199 204.189 77.9744 203.888 77.9347C203.587 77.8949 203.311 77.875 203.061 77.875C202.527 77.875 202.05 77.9915 201.629 78.2244C201.214 78.4517 200.885 78.7699 200.641 79.179C200.402 79.5881 200.283 80.0597 200.283 80.5938V88H196.652ZM211.829 88.2557C210.482 88.2557 209.323 87.983 208.352 87.4375C207.386 86.8864 206.641 86.108 206.119 85.1023C205.596 84.0909 205.335 82.8949 205.335 81.5142C205.335 80.1676 205.596 78.9858 206.119 77.9688C206.641 76.9517 207.377 76.1591 208.326 75.5909C209.281 75.0227 210.4 74.7386 211.684 74.7386C212.548 74.7386 213.352 74.8778 214.096 75.1562C214.846 75.429 215.499 75.8409 216.056 76.392C216.619 76.9432 217.056 77.6364 217.369 78.4716C217.681 79.3011 217.837 80.2727 217.837 81.3864V82.3835H206.783V80.1335H214.42C214.42 79.6108 214.306 79.1477 214.079 78.7443C213.852 78.3409 213.536 78.0256 213.133 77.7983C212.735 77.5653 212.272 77.4489 211.744 77.4489C211.192 77.4489 210.704 77.5767 210.278 77.8324C209.857 78.0824 209.528 78.4205 209.289 78.8466C209.05 79.267 208.928 79.7358 208.923 80.2528V82.392C208.923 83.0398 209.042 83.5994 209.281 84.071C209.525 84.5426 209.869 84.9062 210.312 85.1619C210.755 85.4176 211.281 85.5455 211.888 85.5455C212.292 85.5455 212.661 85.4886 212.996 85.375C213.332 85.2614 213.619 85.0909 213.857 84.8636C214.096 84.6364 214.278 84.358 214.403 84.0284L217.761 84.25C217.59 85.0568 217.241 85.7614 216.712 86.3636C216.19 86.9602 215.513 87.4261 214.684 87.7614C213.86 88.0909 212.908 88.2557 211.829 88.2557ZM223.837 80.4318V88H220.207V74.9091H223.667V77.2188H223.82C224.11 76.4574 224.596 75.8551 225.278 75.4119C225.96 74.9631 226.786 74.7386 227.758 74.7386C228.667 74.7386 229.46 74.9375 230.136 75.3352C230.812 75.733 231.337 76.3011 231.712 77.0398C232.087 77.7727 232.275 78.6477 232.275 79.6648V88H228.644V80.3125C228.65 79.5114 228.445 78.8864 228.031 78.4375C227.616 77.983 227.045 77.7557 226.317 77.7557C225.829 77.7557 225.397 77.8608 225.022 78.071C224.653 78.2812 224.363 78.5881 224.153 78.9915C223.948 79.3892 223.843 79.8693 223.837 80.4318ZM239.96 88.2131C238.966 88.2131 238.065 87.9574 237.259 87.446C236.457 86.929 235.821 86.1705 235.349 85.1705C234.884 84.1648 234.651 82.9318 234.651 81.4716C234.651 79.9716 234.892 78.7244 235.375 77.7301C235.858 76.7301 236.5 75.983 237.301 75.4886C238.108 74.9886 238.991 74.7386 239.952 74.7386C240.685 74.7386 241.295 74.8636 241.784 75.1136C242.278 75.358 242.676 75.6648 242.977 76.0341C243.284 76.3977 243.517 76.7557 243.676 77.108H243.787V70.5455H247.409V88H243.83V85.9034H243.676C243.506 86.267 243.264 86.6278 242.952 86.9858C242.645 87.3381 242.244 87.6307 241.75 87.8636C241.261 88.0966 240.665 88.2131 239.96 88.2131ZM241.111 85.3239C241.696 85.3239 242.19 85.1648 242.594 84.8466C243.003 84.5227 243.315 84.071 243.531 83.4915C243.753 82.9119 243.864 82.233 243.864 81.4545C243.864 80.6761 243.756 80 243.54 79.4261C243.324 78.8523 243.011 78.4091 242.602 78.0966C242.193 77.7841 241.696 77.6278 241.111 77.6278C240.514 77.6278 240.011 77.7898 239.602 78.1136C239.193 78.4375 238.884 78.8864 238.673 79.4602C238.463 80.0341 238.358 80.6989 238.358 81.4545C238.358 82.2159 238.463 82.8892 238.673 83.4744C238.889 84.054 239.199 84.5085 239.602 84.8381C240.011 85.1619 240.514 85.3239 241.111 85.3239ZM250.394 88V74.9091H254.025V88H250.394ZM252.218 73.2216C251.678 73.2216 251.215 73.0426 250.829 72.6847C250.448 72.321 250.258 71.8864 250.258 71.3807C250.258 70.8807 250.448 70.4517 250.829 70.0938C251.215 69.7301 251.678 69.5483 252.218 69.5483C252.758 69.5483 253.218 69.7301 253.599 70.0938C253.985 70.4517 254.178 70.8807 254.178 71.3807C254.178 71.8864 253.985 72.321 253.599 72.6847C253.218 73.0426 252.758 73.2216 252.218 73.2216ZM260.564 80.4318V88H256.933V74.9091H260.393V77.2188H260.547C260.837 76.4574 261.322 75.8551 262.004 75.4119C262.686 74.9631 263.513 74.7386 264.484 74.7386C265.393 74.7386 266.186 74.9375 266.862 75.3352C267.538 75.733 268.064 76.3011 268.439 77.0398C268.814 77.7727 269.001 78.6477 269.001 79.6648V88H265.371V80.3125C265.376 79.5114 265.172 78.8864 264.757 78.4375C264.342 77.983 263.771 77.7557 263.044 77.7557C262.555 77.7557 262.124 77.8608 261.749 78.071C261.379 78.2812 261.089 78.5881 260.879 78.9915C260.675 79.3892 260.57 79.8693 260.564 80.4318ZM277.761 93.1818C276.585 93.1818 275.576 93.0199 274.735 92.696C273.9 92.3778 273.235 91.9432 272.741 91.392C272.246 90.8409 271.925 90.2216 271.778 89.5341L275.136 89.0824C275.238 89.3438 275.4 89.5881 275.621 89.8153C275.843 90.0426 276.136 90.2244 276.499 90.3608C276.869 90.5028 277.317 90.5739 277.846 90.5739C278.636 90.5739 279.286 90.3807 279.798 89.9943C280.315 89.6136 280.573 88.9744 280.573 88.0767V85.6818H280.42C280.261 86.0455 280.022 86.3892 279.704 86.7131C279.386 87.0369 278.977 87.3011 278.477 87.5057C277.977 87.7102 277.38 87.8125 276.687 87.8125C275.704 87.8125 274.809 87.5852 274.002 87.1307C273.201 86.6705 272.562 85.9687 272.085 85.0256C271.613 84.0767 271.377 82.8778 271.377 81.429C271.377 79.946 271.619 78.7074 272.102 77.7131C272.585 76.7187 273.227 75.9744 274.028 75.4801C274.835 74.9858 275.718 74.7386 276.678 74.7386C277.411 74.7386 278.025 74.8636 278.519 75.1136C279.013 75.358 279.411 75.6648 279.712 76.0341C280.019 76.3977 280.255 76.7557 280.42 77.108H280.556V74.9091H284.161V88.1278C284.161 89.2415 283.888 90.1733 283.343 90.9233C282.798 91.6733 282.042 92.2358 281.076 92.6108C280.116 92.9915 279.011 93.1818 277.761 93.1818ZM277.837 85.0852C278.423 85.0852 278.917 84.9403 279.32 84.6506C279.729 84.3551 280.042 83.9347 280.258 83.3892C280.479 82.8381 280.59 82.179 280.59 81.4119C280.59 80.6449 280.482 79.9801 280.266 79.4176C280.05 78.8494 279.738 78.4091 279.329 78.0966C278.92 77.7841 278.423 77.6278 277.837 77.6278C277.241 77.6278 276.738 77.7898 276.329 78.1136C275.92 78.4318 275.61 78.875 275.4 79.4432C275.19 80.0114 275.085 80.6676 275.085 81.4119C275.085 82.1676 275.19 82.821 275.4 83.3722C275.616 83.9176 275.925 84.3409 276.329 84.642C276.738 84.9375 277.241 85.0852 277.837 85.0852Z" fill="white"/>
<path d="M41.0043 109V98.8182H44.902C45.6378 98.8182 46.2493 98.9342 46.7365 99.1662C47.227 99.3949 47.5933 99.7081 47.8352 100.106C48.0805 100.504 48.2031 100.954 48.2031 101.458C48.2031 101.872 48.1236 102.227 47.9645 102.522C47.8054 102.814 47.5916 103.051 47.3232 103.233C47.0547 103.415 46.7547 103.546 46.4233 103.626V103.725C46.7846 103.745 47.1309 103.856 47.4624 104.058C47.7971 104.257 48.0705 104.539 48.2827 104.903C48.4948 105.268 48.6009 105.709 48.6009 106.226C48.6009 106.753 48.4732 107.227 48.218 107.648C47.9628 108.065 47.5784 108.395 47.0646 108.637C46.5509 108.879 45.9046 109 45.1257 109H41.0043ZM42.8487 107.459H44.8324C45.5019 107.459 45.9841 107.331 46.2791 107.076C46.5774 106.817 46.7266 106.486 46.7266 106.082C46.7266 105.78 46.652 105.508 46.5028 105.266C46.3537 105.021 46.1416 104.829 45.8665 104.69C45.5914 104.547 45.2633 104.476 44.8821 104.476H42.8487V107.459ZM42.8487 103.148H44.6733C44.9915 103.148 45.2782 103.09 45.5334 102.974C45.7886 102.855 45.9891 102.688 46.1349 102.472C46.2841 102.254 46.3587 101.995 46.3587 101.697C46.3587 101.302 46.2195 100.978 45.9411 100.722C45.666 100.467 45.2566 100.339 44.7131 100.339H42.8487V103.148ZM52.3233 109.154C51.8394 109.154 51.4036 109.068 51.0158 108.896C50.6313 108.72 50.3264 108.461 50.101 108.12C49.879 107.779 49.7679 107.358 49.7679 106.857C49.7679 106.426 49.8475 106.07 50.0066 105.788C50.1657 105.507 50.3828 105.281 50.6578 105.112C50.9329 104.943 51.2428 104.816 51.5875 104.729C51.9355 104.64 52.2952 104.575 52.6664 104.536C53.1138 104.489 53.4767 104.448 53.7551 104.411C54.0336 104.371 54.2357 104.312 54.3617 104.232C54.4909 104.149 54.5556 104.022 54.5556 103.849V103.82C54.5556 103.445 54.4445 103.155 54.2225 102.95C54.0004 102.744 53.6806 102.641 53.263 102.641C52.8221 102.641 52.4725 102.737 52.214 102.93C51.9587 103.122 51.7864 103.349 51.6969 103.611L50.0165 103.372C50.1491 102.908 50.3678 102.52 50.6728 102.209C50.9777 101.894 51.3506 101.659 51.7914 101.503C52.2322 101.344 52.7194 101.264 53.253 101.264C53.6209 101.264 53.9872 101.307 54.3517 101.393C54.7163 101.48 55.0494 101.622 55.351 101.821C55.6526 102.017 55.8946 102.283 56.0769 102.621C56.2625 102.96 56.3553 103.382 56.3553 103.889V109H54.6252V107.951H54.5655C54.4561 108.163 54.302 108.362 54.1032 108.548C53.9076 108.73 53.6607 108.877 53.3624 108.99C53.0674 109.099 52.7211 109.154 52.3233 109.154ZM52.7907 107.832C53.1519 107.832 53.4651 107.76 53.7303 107.618C53.9954 107.472 54.1993 107.28 54.3418 107.041C54.4876 106.803 54.5605 106.542 54.5605 106.261V105.361C54.5042 105.407 54.4081 105.45 54.2722 105.49C54.1396 105.53 53.9905 105.565 53.8248 105.594C53.659 105.624 53.495 105.651 53.3326 105.674C53.1702 105.697 53.0293 105.717 52.91 105.734C52.6415 105.77 52.4012 105.83 52.1891 105.913C51.977 105.996 51.8096 106.112 51.687 106.261C51.5643 106.406 51.503 106.595 51.503 106.827C51.503 107.159 51.624 107.409 51.8659 107.578C52.1079 107.747 52.4161 107.832 52.7907 107.832ZM64.2005 103.382L62.5598 103.561C62.5134 103.395 62.4322 103.24 62.3162 103.094C62.2035 102.948 62.0511 102.83 61.8588 102.741C61.6666 102.651 61.4313 102.607 61.1529 102.607C60.7783 102.607 60.4635 102.688 60.2083 102.85C59.9564 103.013 59.8321 103.223 59.8354 103.482C59.8321 103.704 59.9133 103.884 60.079 104.023C60.248 104.163 60.5265 104.277 60.9142 104.366L62.2168 104.645C62.9393 104.801 63.4763 105.048 63.8276 105.386C64.1822 105.724 64.3612 106.166 64.3645 106.713C64.3612 107.194 64.2203 107.618 63.9419 107.986C63.6668 108.35 63.284 108.635 62.7935 108.841C62.303 109.046 61.7395 109.149 61.1032 109.149C60.1685 109.149 59.4161 108.954 58.8461 108.562C58.276 108.168 57.9363 107.62 57.8269 106.917L59.5819 106.748C59.6614 107.093 59.8304 107.353 60.089 107.528C60.3475 107.704 60.6839 107.792 61.0982 107.792C61.5257 107.792 61.8688 107.704 62.1273 107.528C62.3891 107.353 62.5201 107.136 62.5201 106.877C62.5201 106.658 62.4355 106.478 62.2665 106.335C62.1008 106.193 61.8423 106.083 61.4909 106.007L60.1884 105.734C59.4559 105.581 58.914 105.324 58.5627 104.963C58.2114 104.598 58.0373 104.138 58.0407 103.581C58.0373 103.11 58.165 102.703 58.4235 102.358C58.6853 102.01 59.0482 101.741 59.5123 101.553C59.9796 101.36 60.5182 101.264 61.128 101.264C62.0229 101.264 62.7272 101.455 63.2409 101.836C63.758 102.217 64.0778 102.732 64.2005 103.382ZM69.2292 109.149C68.4636 109.149 67.8024 108.99 67.2456 108.672C66.6921 108.35 66.2662 107.896 65.9679 107.31C65.6696 106.72 65.5204 106.025 65.5204 105.227C65.5204 104.441 65.6696 103.752 65.9679 103.158C66.2695 102.562 66.6904 102.098 67.2306 101.766C67.7709 101.432 68.4056 101.264 69.1348 101.264C69.6054 101.264 70.0495 101.34 70.4672 101.493C70.8881 101.642 71.2593 101.874 71.5808 102.189C71.9056 102.504 72.1608 102.905 72.3464 103.392C72.532 103.876 72.6248 104.453 72.6248 105.122V105.674H66.3656V104.461H70.8997C70.8964 104.116 70.8218 103.81 70.676 103.541C70.5301 103.269 70.3263 103.056 70.0645 102.9C69.8059 102.744 69.5043 102.666 69.1596 102.666C68.7917 102.666 68.4686 102.756 68.1902 102.935C67.9118 103.11 67.6947 103.342 67.5389 103.631C67.3864 103.916 67.3085 104.229 67.3052 104.57V105.629C67.3052 106.073 67.3864 106.455 67.5488 106.773C67.7112 107.088 67.9383 107.33 68.2299 107.499C68.5216 107.664 68.863 107.747 69.2541 107.747C69.5159 107.747 69.7529 107.711 69.965 107.638C70.1771 107.562 70.3611 107.451 70.5169 107.305C70.6726 107.159 70.7903 106.978 70.8699 106.763L72.5502 106.952C72.4442 107.396 72.242 107.784 71.9437 108.115C71.6487 108.443 71.2709 108.698 70.8102 108.881C70.3495 109.06 69.8225 109.149 69.2292 109.149ZM76.9812 109.134C76.3813 109.134 75.8443 108.98 75.3704 108.672C74.8964 108.364 74.5219 107.916 74.2468 107.33C73.9717 106.743 73.8342 106.03 73.8342 105.192C73.8342 104.343 73.9734 103.627 74.2518 103.044C74.5335 102.457 74.913 102.015 75.3903 101.717C75.8675 101.415 76.3995 101.264 76.9862 101.264C77.4336 101.264 77.8015 101.34 78.0898 101.493C78.3782 101.642 78.6069 101.823 78.7759 102.035C78.945 102.244 79.0759 102.441 79.1687 102.626H79.2433V98.8182H81.0479V109H79.2781V107.797H79.1687C79.0759 107.982 78.9416 108.18 78.766 108.388C78.5903 108.594 78.3583 108.77 78.07 108.915C77.7816 109.061 77.4187 109.134 76.9812 109.134ZM77.4833 107.658C77.8645 107.658 78.1893 107.555 78.4577 107.349C78.7262 107.141 78.93 106.851 79.0692 106.479C79.2085 106.108 79.2781 105.676 79.2781 105.182C79.2781 104.688 79.2085 104.259 79.0692 103.894C78.9334 103.53 78.7312 103.246 78.4627 103.044C78.1976 102.842 77.8711 102.741 77.4833 102.741C77.0823 102.741 76.7475 102.845 76.479 103.054C76.2106 103.263 76.0084 103.551 75.8725 103.919C75.7366 104.287 75.6687 104.708 75.6687 105.182C75.6687 105.659 75.7366 106.085 75.8725 106.46C76.0117 106.831 76.2156 107.124 76.484 107.339C76.7558 107.552 77.0889 107.658 77.4833 107.658ZM89.7694 109.149C89.0236 109.149 88.3773 108.985 87.8304 108.657C87.2836 108.329 86.8593 107.87 86.5577 107.28C86.2594 106.69 86.1103 106 86.1103 105.212C86.1103 104.423 86.2594 103.732 86.5577 103.138C86.8593 102.545 87.2836 102.085 87.8304 101.756C88.3773 101.428 89.0236 101.264 89.7694 101.264C90.5151 101.264 91.1614 101.428 91.7083 101.756C92.2551 102.085 92.6777 102.545 92.976 103.138C93.2776 103.732 93.4284 104.423 93.4284 105.212C93.4284 106 93.2776 106.69 92.976 107.28C92.6777 107.87 92.2551 108.329 91.7083 108.657C91.1614 108.985 90.5151 109.149 89.7694 109.149ZM89.7793 107.707C90.1837 107.707 90.5217 107.596 90.7935 107.374C91.0653 107.149 91.2675 106.847 91.4 106.469C91.5359 106.092 91.6039 105.671 91.6039 105.207C91.6039 104.739 91.5359 104.317 91.4 103.939C91.2675 103.558 91.0653 103.254 90.7935 103.029C90.5217 102.804 90.1837 102.691 89.7793 102.691C89.365 102.691 89.0203 102.804 88.7452 103.029C88.4734 103.254 88.2696 103.558 88.1337 103.939C88.0011 104.317 87.9348 104.739 87.9348 105.207C87.9348 105.671 88.0011 106.092 88.1337 106.469C88.2696 106.847 88.4734 107.149 88.7452 107.374C89.0203 107.596 89.365 107.707 89.7793 107.707ZM96.7557 104.526V109H94.956V101.364H96.6761V102.661H96.7656C96.9413 102.234 97.2214 101.894 97.6058 101.642C97.9936 101.39 98.4725 101.264 99.0426 101.264C99.5696 101.264 100.029 101.377 100.42 101.602C100.814 101.828 101.119 102.154 101.335 102.582C101.553 103.009 101.661 103.528 101.658 104.138V109H99.858V104.416C99.858 103.906 99.7254 103.506 99.4602 103.218C99.1984 102.93 98.8355 102.786 98.3714 102.786C98.0566 102.786 97.7765 102.855 97.5312 102.994C97.2893 103.13 97.0987 103.327 96.9595 103.586C96.8236 103.844 96.7557 104.158 96.7557 104.526ZM107.039 109V98.8182H110.858C111.64 98.8182 112.296 98.964 112.826 99.2557C113.36 99.5473 113.763 99.9484 114.034 100.459C114.31 100.966 114.447 101.543 114.447 102.189C114.447 102.842 114.31 103.422 114.034 103.929C113.759 104.436 113.353 104.835 112.816 105.127C112.279 105.415 111.618 105.56 110.833 105.56H108.302V104.043H110.584C111.042 104.043 111.416 103.964 111.708 103.805C111.999 103.646 112.215 103.427 112.354 103.148C112.497 102.87 112.568 102.55 112.568 102.189C112.568 101.828 112.497 101.509 112.354 101.234C112.215 100.959 111.998 100.746 111.703 100.593C111.411 100.437 111.035 100.359 110.574 100.359H108.884V109H107.039ZM117.769 98.8182V109H115.97V98.8182H117.769ZM121.817 109.154C121.334 109.154 120.898 109.068 120.51 108.896C120.125 108.72 119.821 108.461 119.595 108.12C119.373 107.779 119.262 107.358 119.262 106.857C119.262 106.426 119.342 106.07 119.501 105.788C119.66 105.507 119.877 105.281 120.152 105.112C120.427 104.943 120.737 104.816 121.082 104.729C121.43 104.64 121.789 104.575 122.161 104.536C122.608 104.489 122.971 104.448 123.249 104.411C123.528 104.371 123.73 104.312 123.856 104.232C123.985 104.149 124.05 104.022 124.05 103.849V103.82C124.05 103.445 123.939 103.155 123.717 102.95C123.495 102.744 123.175 102.641 122.757 102.641C122.316 102.641 121.967 102.737 121.708 102.93C121.453 103.122 121.281 103.349 121.191 103.611L119.511 103.372C119.643 102.908 119.862 102.52 120.167 102.209C120.472 101.894 120.845 101.659 121.286 101.503C121.726 101.344 122.214 101.264 122.747 101.264C123.115 101.264 123.481 101.307 123.846 101.393C124.21 101.48 124.544 101.622 124.845 101.821C125.147 102.017 125.389 102.283 125.571 102.621C125.757 102.96 125.849 103.382 125.849 103.889V109H124.119V107.951H124.06C123.95 108.163 123.796 108.362 123.597 108.548C123.402 108.73 123.155 108.877 122.857 108.99C122.562 109.099 122.215 109.154 121.817 109.154ZM122.285 107.832C122.646 107.832 122.959 107.76 123.224 107.618C123.49 107.472 123.693 107.28 123.836 107.041C123.982 106.803 124.055 106.542 124.055 106.261V105.361C123.998 105.407 123.902 105.45 123.766 105.49C123.634 105.53 123.485 105.565 123.319 105.594C123.153 105.624 122.989 105.651 122.827 105.674C122.664 105.697 122.523 105.717 122.404 105.734C122.136 105.77 121.895 105.83 121.683 105.913C121.471 105.996 121.304 106.112 121.181 106.261C121.058 106.406 120.997 106.595 120.997 106.827C120.997 107.159 121.118 107.409 121.36 107.578C121.602 107.747 121.91 107.832 122.285 107.832ZM128.504 111.864C128.259 111.864 128.032 111.844 127.823 111.804C127.618 111.768 127.454 111.724 127.331 111.675L127.749 110.273C128.01 110.349 128.244 110.385 128.45 110.382C128.655 110.379 128.836 110.314 128.991 110.188C129.151 110.066 129.285 109.86 129.394 109.572L129.548 109.159L126.779 101.364H128.688L130.448 107.131H130.528L132.293 101.364H134.207L131.149 109.925C131.007 110.329 130.818 110.675 130.582 110.964C130.347 111.255 130.059 111.478 129.717 111.63C129.379 111.786 128.975 111.864 128.504 111.864ZM138.573 109.149C137.807 109.149 137.146 108.99 136.589 108.672C136.036 108.35 135.61 107.896 135.312 107.31C135.013 106.72 134.864 106.025 134.864 105.227C134.864 104.441 135.013 103.752 135.312 103.158C135.613 102.562 136.034 102.098 136.574 101.766C137.115 101.432 137.749 101.264 138.479 101.264C138.949 101.264 139.393 101.34 139.811 101.493C140.232 101.642 140.603 101.874 140.925 102.189C141.249 102.504 141.505 102.905 141.69 103.392C141.876 103.876 141.969 104.453 141.969 105.122V105.674H135.709V104.461H140.243C140.24 104.116 140.166 103.81 140.02 103.541C139.874 103.269 139.67 103.056 139.408 102.9C139.15 102.744 138.848 102.666 138.503 102.666C138.135 102.666 137.812 102.756 137.534 102.935C137.256 103.11 137.038 103.342 136.883 103.631C136.73 103.916 136.652 104.229 136.649 104.57V105.629C136.649 106.073 136.73 106.455 136.893 106.773C137.055 107.088 137.282 107.33 137.574 107.499C137.865 107.664 138.207 107.747 138.598 107.747C138.86 107.747 139.097 107.711 139.309 107.638C139.521 107.562 139.705 107.451 139.861 107.305C140.016 107.159 140.134 106.978 140.214 106.763L141.894 106.952C141.788 107.396 141.586 107.784 141.287 108.115C140.992 108.443 140.615 108.698 140.154 108.881C139.693 109.06 139.166 109.149 138.573 109.149ZM143.491 109V101.364H145.236V102.636H145.316C145.455 102.196 145.694 101.856 146.032 101.617C146.373 101.375 146.762 101.254 147.2 101.254C147.299 101.254 147.41 101.259 147.533 101.269C147.659 101.276 147.763 101.287 147.846 101.304V102.96C147.77 102.933 147.649 102.91 147.483 102.89C147.321 102.867 147.163 102.855 147.011 102.855C146.683 102.855 146.388 102.926 146.126 103.069C145.868 103.208 145.664 103.402 145.515 103.651C145.365 103.899 145.291 104.186 145.291 104.511V109H143.491ZM155.846 109.149C155.083 109.149 154.429 108.982 153.882 108.647C153.338 108.312 152.919 107.85 152.624 107.26C152.332 106.667 152.186 105.984 152.186 105.212C152.186 104.436 152.336 103.752 152.634 103.158C152.932 102.562 153.353 102.098 153.897 101.766C154.444 101.432 155.09 101.264 155.836 101.264C156.455 101.264 157.004 101.379 157.481 101.607C157.962 101.833 158.345 102.152 158.63 102.567C158.915 102.978 159.077 103.458 159.117 104.009H157.397C157.327 103.641 157.161 103.334 156.9 103.089C156.641 102.84 156.295 102.716 155.86 102.716C155.493 102.716 155.169 102.815 154.891 103.014C154.613 103.21 154.395 103.491 154.24 103.859C154.087 104.227 154.011 104.668 154.011 105.182C154.011 105.702 154.087 106.15 154.24 106.524C154.392 106.895 154.606 107.182 154.881 107.384C155.159 107.583 155.486 107.683 155.86 107.683C156.126 107.683 156.363 107.633 156.571 107.533C156.783 107.431 156.961 107.283 157.103 107.091C157.246 106.899 157.344 106.665 157.397 106.39H159.117C159.074 106.93 158.915 107.409 158.64 107.827C158.364 108.241 157.99 108.566 157.516 108.801C157.042 109.033 156.485 109.149 155.846 109.149ZM163.926 109.149C163.18 109.149 162.534 108.985 161.987 108.657C161.44 108.329 161.016 107.87 160.714 107.28C160.416 106.69 160.267 106 160.267 105.212C160.267 104.423 160.416 103.732 160.714 103.138C161.016 102.545 161.44 102.085 161.987 101.756C162.534 101.428 163.18 101.264 163.926 101.264C164.671 101.264 165.318 101.428 165.865 101.756C166.411 102.085 166.834 102.545 167.132 103.138C167.434 103.732 167.585 104.423 167.585 105.212C167.585 106 167.434 106.69 167.132 107.28C166.834 107.87 166.411 108.329 165.865 108.657C165.318 108.985 164.671 109.149 163.926 109.149ZM163.936 107.707C164.34 107.707 164.678 107.596 164.95 107.374C165.222 107.149 165.424 106.847 165.556 106.469C165.692 106.092 165.76 105.671 165.76 105.207C165.76 104.739 165.692 104.317 165.556 103.939C165.424 103.558 165.222 103.254 164.95 103.029C164.678 102.804 164.34 102.691 163.936 102.691C163.521 102.691 163.177 102.804 162.901 103.029C162.63 103.254 162.426 103.558 162.29 103.939C162.157 104.317 162.091 104.739 162.091 105.207C162.091 105.671 162.157 106.092 162.29 106.469C162.426 106.847 162.63 107.149 162.901 107.374C163.177 107.596 163.521 107.707 163.936 107.707ZM173.979 105.788V101.364H175.779V109H174.034V107.643H173.955C173.782 108.07 173.499 108.42 173.104 108.692C172.713 108.964 172.231 109.099 171.658 109.099C171.157 109.099 170.715 108.988 170.33 108.766C169.949 108.541 169.651 108.214 169.435 107.787C169.22 107.356 169.112 106.836 169.112 106.226V101.364H170.912V105.947C170.912 106.431 171.045 106.816 171.31 107.101C171.575 107.386 171.923 107.528 172.354 107.528C172.619 107.528 172.876 107.464 173.124 107.335C173.373 107.205 173.577 107.013 173.736 106.758C173.898 106.499 173.979 106.176 173.979 105.788ZM179.43 104.526V109H177.63V101.364H179.35V102.661H179.439C179.615 102.234 179.895 101.894 180.28 101.642C180.667 101.39 181.146 101.264 181.716 101.264C182.243 101.264 182.702 101.377 183.094 101.602C183.488 101.828 183.793 102.154 184.008 102.582C184.227 103.009 184.335 103.528 184.331 104.138V109H182.532V104.416C182.532 103.906 182.399 103.506 182.134 103.218C181.872 102.93 181.509 102.786 181.045 102.786C180.73 102.786 180.45 102.855 180.205 102.994C179.963 103.13 179.773 103.327 179.633 103.586C179.497 103.844 179.43 104.158 179.43 104.526ZM189.974 101.364V102.756H185.584V101.364H189.974ZM186.668 99.5341H188.468V106.703C188.468 106.945 188.504 107.131 188.577 107.26C188.653 107.386 188.753 107.472 188.876 107.518C188.998 107.565 189.134 107.588 189.283 107.588C189.396 107.588 189.499 107.58 189.591 107.563C189.688 107.547 189.76 107.532 189.81 107.518L190.113 108.925C190.017 108.959 189.88 108.995 189.701 109.035C189.525 109.075 189.31 109.098 189.055 109.104C188.604 109.118 188.198 109.05 187.836 108.901C187.475 108.748 187.189 108.513 186.976 108.195C186.768 107.876 186.665 107.479 186.668 107.001V99.5341ZM197.406 103.382L195.765 103.561C195.719 103.395 195.637 103.24 195.521 103.094C195.409 102.948 195.256 102.83 195.064 102.741C194.872 102.651 194.636 102.607 194.358 102.607C193.983 102.607 193.669 102.688 193.413 102.85C193.161 103.013 193.037 103.223 193.04 103.482C193.037 103.704 193.118 103.884 193.284 104.023C193.453 104.163 193.732 104.277 194.119 104.366L195.422 104.645C196.144 104.801 196.681 105.048 197.033 105.386C197.387 105.724 197.566 106.166 197.57 106.713C197.566 107.194 197.425 107.618 197.147 107.986C196.872 108.35 196.489 108.635 195.999 108.841C195.508 109.046 194.945 109.149 194.308 109.149C193.374 109.149 192.621 108.954 192.051 108.562C191.481 108.168 191.141 107.62 191.032 106.917L192.787 106.748C192.866 107.093 193.036 107.353 193.294 107.528C193.553 107.704 193.889 107.792 194.303 107.792C194.731 107.792 195.074 107.704 195.332 107.528C195.594 107.353 195.725 107.136 195.725 106.877C195.725 106.658 195.641 106.478 195.472 106.335C195.306 106.193 195.047 106.083 194.696 106.007L193.393 105.734C192.661 105.581 192.119 105.324 191.768 104.963C191.416 104.598 191.242 104.138 191.246 103.581C191.242 103.11 191.37 102.703 191.629 102.358C191.89 102.01 192.253 101.741 192.717 101.553C193.185 101.36 193.723 101.264 194.333 101.264C195.228 101.264 195.932 101.455 196.446 101.836C196.963 102.217 197.283 102.732 197.406 103.382ZM204.724 109.154C204.24 109.154 203.804 109.068 203.416 108.896C203.032 108.72 202.727 108.461 202.501 108.12C202.279 107.779 202.168 107.358 202.168 106.857C202.168 106.426 202.248 106.07 202.407 105.788C202.566 105.507 202.783 105.281 203.058 105.112C203.333 104.943 203.643 104.816 203.988 104.729C204.336 104.64 204.696 104.575 205.067 104.536C205.514 104.489 205.877 104.448 206.156 104.411C206.434 104.371 206.636 104.312 206.762 104.232C206.891 104.149 206.956 104.022 206.956 103.849V103.82C206.956 103.445 206.845 103.155 206.623 102.95C206.401 102.744 206.081 102.641 205.663 102.641C205.223 102.641 204.873 102.737 204.614 102.93C204.359 103.122 204.187 103.349 204.097 103.611L202.417 103.372C202.549 102.908 202.768 102.52 203.073 102.209C203.378 101.894 203.751 101.659 204.192 101.503C204.633 101.344 205.12 101.264 205.653 101.264C206.021 101.264 206.388 101.307 206.752 101.393C207.117 101.48 207.45 101.622 207.751 101.821C208.053 102.017 208.295 102.283 208.477 102.621C208.663 102.96 208.756 103.382 208.756 103.889V109H207.026V107.951H206.966C206.857 108.163 206.702 108.362 206.504 108.548C206.308 108.73 206.061 108.877 205.763 108.99C205.468 109.099 205.121 109.154 204.724 109.154ZM205.191 107.832C205.552 107.832 205.866 107.76 206.131 107.618C206.396 107.472 206.6 107.28 206.742 107.041C206.888 106.803 206.961 106.542 206.961 106.261V105.361C206.905 105.407 206.808 105.45 206.673 105.49C206.54 105.53 206.391 105.565 206.225 105.594C206.059 105.624 205.895 105.651 205.733 105.674C205.571 105.697 205.43 105.717 205.31 105.734C205.042 105.77 204.802 105.83 204.589 105.913C204.377 105.996 204.21 106.112 204.087 106.261C203.965 106.406 203.903 106.595 203.903 106.827C203.903 107.159 204.024 107.409 204.266 107.578C204.508 107.747 204.817 107.832 205.191 107.832ZM212.365 104.526V109H210.565V101.364H212.286V102.661H212.375C212.551 102.234 212.831 101.894 213.215 101.642C213.603 101.39 214.082 101.264 214.652 101.264C215.179 101.264 215.638 101.377 216.029 101.602C216.424 101.828 216.728 102.154 216.944 102.582C217.163 103.009 217.27 103.528 217.267 104.138V109H215.467V104.416C215.467 103.906 215.335 103.506 215.07 103.218C214.808 102.93 214.445 102.786 213.981 102.786C213.666 102.786 213.386 102.855 213.141 102.994C212.899 103.13 212.708 103.327 212.569 103.586C212.433 103.844 212.365 104.158 212.365 104.526ZM221.93 109.134C221.33 109.134 220.794 108.98 220.32 108.672C219.846 108.364 219.471 107.916 219.196 107.33C218.921 106.743 218.783 106.03 218.783 105.192C218.783 104.343 218.923 103.627 219.201 103.044C219.483 102.457 219.862 102.015 220.339 101.717C220.817 101.415 221.349 101.264 221.935 101.264C222.383 101.264 222.751 101.34 223.039 101.493C223.327 101.642 223.556 101.823 223.725 102.035C223.894 102.244 224.025 102.441 224.118 102.626H224.192V98.8182H225.997V109H224.227V107.797H224.118C224.025 107.982 223.891 108.18 223.715 108.388C223.54 108.594 223.308 108.77 223.019 108.915C222.731 109.061 222.368 109.134 221.93 109.134ZM222.433 107.658C222.814 107.658 223.138 107.555 223.407 107.349C223.675 107.141 223.879 106.851 224.018 106.479C224.158 106.108 224.227 105.676 224.227 105.182C224.227 104.688 224.158 104.259 224.018 103.894C223.883 103.53 223.68 103.246 223.412 103.044C223.147 102.842 222.82 102.741 222.433 102.741C222.031 102.741 221.697 102.845 221.428 103.054C221.16 103.263 220.958 103.551 220.822 103.919C220.686 104.287 220.618 104.708 220.618 105.182C220.618 105.659 220.686 106.085 220.822 106.46C220.961 106.831 221.165 107.124 221.433 107.339C221.705 107.552 222.038 107.658 222.433 107.658ZM231.388 109V101.364H233.133V102.636H233.212C233.351 102.196 233.59 101.856 233.928 101.617C234.269 101.375 234.659 101.254 235.096 101.254C235.196 101.254 235.307 101.259 235.43 101.269C235.555 101.276 235.66 101.287 235.743 101.304V102.96C235.666 102.933 235.546 102.91 235.38 102.89C235.217 102.867 235.06 102.855 234.907 102.855C234.579 102.855 234.284 102.926 234.023 103.069C233.764 103.208 233.56 103.402 233.411 103.651C233.262 103.899 233.187 104.186 233.187 104.511V109H231.388ZM240.005 109.149C239.239 109.149 238.578 108.99 238.021 108.672C237.467 108.35 237.042 107.896 236.743 107.31C236.445 106.72 236.296 106.025 236.296 105.227C236.296 104.441 236.445 103.752 236.743 103.158C237.045 102.562 237.466 102.098 238.006 101.766C238.546 101.432 239.181 101.264 239.91 101.264C240.381 101.264 240.825 101.34 241.243 101.493C241.663 101.642 242.035 101.874 242.356 102.189C242.681 102.504 242.936 102.905 243.122 103.392C243.307 103.876 243.4 104.453 243.4 105.122V105.674H237.141V104.461H241.675C241.672 104.116 241.597 103.81 241.451 103.541C241.306 103.269 241.102 103.056 240.84 102.9C240.581 102.744 240.28 102.666 239.935 102.666C239.567 102.666 239.244 102.756 238.966 102.935C238.687 103.11 238.47 103.342 238.314 103.631C238.162 103.916 238.084 104.229 238.081 104.57V105.629C238.081 106.073 238.162 106.455 238.324 106.773C238.487 107.088 238.714 107.33 239.005 107.499C239.297 107.664 239.638 107.747 240.029 107.747C240.291 107.747 240.528 107.711 240.74 107.638C240.953 107.562 241.136 107.451 241.292 107.305C241.448 107.159 241.566 106.978 241.645 106.763L243.326 106.952C243.22 107.396 243.017 107.784 242.719 108.115C242.424 108.443 242.046 108.698 241.586 108.881C241.125 109.06 240.598 109.149 240.005 109.149ZM246.722 98.8182V109H244.923V98.8182H246.722ZM251.954 109.149C251.188 109.149 250.527 108.99 249.97 108.672C249.417 108.35 248.991 107.896 248.692 107.31C248.394 106.72 248.245 106.025 248.245 105.227C248.245 104.441 248.394 103.752 248.692 103.158C248.994 102.562 249.415 102.098 249.955 101.766C250.496 101.432 251.13 101.264 251.859 101.264C252.33 101.264 252.774 101.34 253.192 101.493C253.613 101.642 253.984 101.874 254.305 102.189C254.63 102.504 254.885 102.905 255.071 103.392C255.257 103.876 255.349 104.453 255.349 105.122V105.674H249.09V104.461H253.624C253.621 104.116 253.546 103.81 253.401 103.541C253.255 103.269 253.051 103.056 252.789 102.9C252.531 102.744 252.229 102.666 251.884 102.666C251.516 102.666 251.193 102.756 250.915 102.935C250.636 103.11 250.419 103.342 250.263 103.631C250.111 103.916 250.033 104.229 250.03 104.57V105.629C250.03 106.073 250.111 106.455 250.273 106.773C250.436 107.088 250.663 107.33 250.955 107.499C251.246 107.664 251.588 107.747 251.979 107.747C252.241 107.747 252.478 107.711 252.69 107.638C252.902 107.562 253.086 107.451 253.241 107.305C253.397 107.159 253.515 106.978 253.594 106.763L255.275 106.952C255.169 107.396 254.967 107.784 254.668 108.115C254.373 108.443 253.996 108.698 253.535 108.881C253.074 109.06 252.547 109.149 251.954 109.149ZM259.069 109.154C258.586 109.154 258.15 109.068 257.762 108.896C257.377 108.72 257.073 108.461 256.847 108.12C256.625 107.779 256.514 107.358 256.514 106.857C256.514 106.426 256.594 106.07 256.753 105.788C256.912 105.507 257.129 105.281 257.404 105.112C257.679 104.943 257.989 104.816 258.334 104.729C258.682 104.64 259.041 104.575 259.412 104.536C259.86 104.489 260.223 104.448 260.501 104.411C260.78 104.371 260.982 104.312 261.108 104.232C261.237 104.149 261.302 104.022 261.302 103.849V103.82C261.302 103.445 261.191 103.155 260.969 102.95C260.747 102.744 260.427 102.641 260.009 102.641C259.568 102.641 259.219 102.737 258.96 102.93C258.705 103.122 258.532 103.349 258.443 103.611L256.763 103.372C256.895 102.908 257.114 102.52 257.419 102.209C257.724 101.894 258.097 101.659 258.537 101.503C258.978 101.344 259.465 101.264 259.999 101.264C260.367 101.264 260.733 101.307 261.098 101.393C261.462 101.48 261.796 101.622 262.097 101.821C262.399 102.017 262.641 102.283 262.823 102.621C263.009 102.96 263.101 103.382 263.101 103.889V109H261.371V107.951H261.312C261.202 108.163 261.048 108.362 260.849 108.548C260.654 108.73 260.407 108.877 260.108 108.99C259.814 109.099 259.467 109.154 259.069 109.154ZM259.537 107.832C259.898 107.832 260.211 107.76 260.476 107.618C260.742 107.472 260.945 107.28 261.088 107.041C261.234 106.803 261.307 106.542 261.307 106.261V105.361C261.25 105.407 261.154 105.45 261.018 105.49C260.886 105.53 260.737 105.565 260.571 105.594C260.405 105.624 260.241 105.651 260.079 105.674C259.916 105.697 259.775 105.717 259.656 105.734C259.388 105.77 259.147 105.83 258.935 105.913C258.723 105.996 258.556 106.112 258.433 106.261C258.31 106.406 258.249 106.595 258.249 106.827C258.249 107.159 258.37 107.409 258.612 107.578C258.854 107.747 259.162 107.832 259.537 107.832ZM270.947 103.382L269.306 103.561C269.26 103.395 269.178 103.24 269.062 103.094C268.95 102.948 268.797 102.83 268.605 102.741C268.413 102.651 268.177 102.607 267.899 102.607C267.524 102.607 267.21 102.688 266.954 102.85C266.702 103.013 266.578 103.223 266.581 103.482C266.578 103.704 266.659 103.884 266.825 104.023C266.994 104.163 267.273 104.277 267.66 104.366L268.963 104.645C269.685 104.801 270.222 105.048 270.574 105.386C270.928 105.724 271.107 106.166 271.111 106.713C271.107 107.194 270.966 107.618 270.688 107.986C270.413 108.35 270.03 108.635 269.54 108.841C269.049 109.046 268.486 109.149 267.849 109.149C266.915 109.149 266.162 108.954 265.592 108.562C265.022 108.168 264.682 107.62 264.573 106.917L266.328 106.748C266.407 107.093 266.577 107.353 266.835 107.528C267.094 107.704 267.43 107.792 267.844 107.792C268.272 107.792 268.615 107.704 268.873 107.528C269.135 107.353 269.266 107.136 269.266 106.877C269.266 106.658 269.182 106.478 269.013 106.335C268.847 106.193 268.588 106.083 268.237 106.007L266.934 105.734C266.202 105.581 265.66 105.324 265.309 104.963C264.957 104.598 264.783 104.138 264.787 103.581C264.783 103.11 264.911 102.703 265.17 102.358C265.431 102.01 265.794 101.741 266.258 101.553C266.726 101.36 267.264 101.264 267.874 101.264C268.769 101.264 269.473 101.455 269.987 101.836C270.504 102.217 270.824 102.732 270.947 103.382ZM275.975 109.149C275.21 109.149 274.548 108.99 273.992 108.672C273.438 108.35 273.012 107.896 272.714 107.31C272.416 106.72 272.267 106.025 272.267 105.227C272.267 104.441 272.416 103.752 272.714 103.158C273.016 102.562 273.436 102.098 273.977 101.766C274.517 101.432 275.152 101.264 275.881 101.264C276.352 101.264 276.796 101.34 277.213 101.493C277.634 101.642 278.005 101.874 278.327 102.189C278.652 102.504 278.907 102.905 279.093 103.392C279.278 103.876 279.371 104.453 279.371 105.122V105.674H273.112V104.461H277.646C277.642 104.116 277.568 103.81 277.422 103.541C277.276 103.269 277.072 103.056 276.811 102.9C276.552 102.744 276.25 102.666 275.906 102.666C275.538 102.666 275.215 102.756 274.936 102.935C274.658 103.11 274.441 103.342 274.285 103.631C274.133 103.916 274.055 104.229 274.051 104.57V105.629C274.051 106.073 274.133 106.455 274.295 106.773C274.457 107.088 274.684 107.33 274.976 107.499C275.268 107.664 275.609 107.747 276 107.747C276.262 107.747 276.499 107.711 276.711 107.638C276.923 107.562 277.107 107.451 277.263 107.305C277.419 107.159 277.536 106.978 277.616 106.763L279.296 106.952C279.19 107.396 278.988 107.784 278.69 108.115C278.395 108.443 278.017 108.698 277.556 108.881C277.096 109.06 276.569 109.149 275.975 109.149ZM287.2 109.134C286.6 109.134 286.063 108.98 285.589 108.672C285.115 108.364 284.741 107.916 284.466 107.33C284.19 106.743 284.053 106.03 284.053 105.192C284.053 104.343 284.192 103.627 284.471 103.044C284.752 102.457 285.132 102.015 285.609 101.717C286.086 101.415 286.618 101.264 287.205 101.264C287.652 101.264 288.02 101.34 288.309 101.493C288.597 101.642 288.826 101.823 288.995 102.035C289.164 102.244 289.295 102.441 289.387 102.626H289.462V98.8182H291.267V109H289.497V107.797H289.387C289.295 107.982 289.16 108.18 288.985 108.388C288.809 108.594 288.577 108.77 288.289 108.915C288 109.061 287.637 109.134 287.2 109.134ZM287.702 107.658C288.083 107.658 288.408 107.555 288.676 107.349C288.945 107.141 289.149 106.851 289.288 106.479C289.427 106.108 289.497 105.676 289.497 105.182C289.497 104.688 289.427 104.259 289.288 103.894C289.152 103.53 288.95 103.246 288.681 103.044C288.416 102.842 288.09 102.741 287.702 102.741C287.301 102.741 286.966 102.845 286.698 103.054C286.429 103.263 286.227 103.551 286.091 103.919C285.955 104.287 285.887 104.708 285.887 105.182C285.887 105.659 285.955 106.085 286.091 106.46C286.23 106.831 286.434 107.124 286.703 107.339C286.975 107.552 287.308 107.658 287.702 107.658ZM295.382 109.154C294.898 109.154 294.462 109.068 294.074 108.896C293.69 108.72 293.385 108.461 293.16 108.12C292.938 107.779 292.827 107.358 292.827 106.857C292.827 106.426 292.906 106.07 293.065 105.788C293.224 105.507 293.441 105.281 293.716 105.112C293.992 104.943 294.301 104.816 294.646 104.729C294.994 104.64 295.354 104.575 295.725 104.536C296.172 104.489 296.535 104.448 296.814 104.411C297.092 104.371 297.294 104.312 297.42 104.232C297.55 104.149 297.614 104.022 297.614 103.849V103.82C297.614 103.445 297.503 103.155 297.281 102.95C297.059 102.744 296.739 102.641 296.322 102.641C295.881 102.641 295.531 102.737 295.273 102.93C295.017 103.122 294.845 103.349 294.756 103.611L293.075 103.372C293.208 102.908 293.426 102.52 293.731 102.209C294.036 101.894 294.409 101.659 294.85 101.503C295.291 101.344 295.778 101.264 296.312 101.264C296.68 101.264 297.046 101.307 297.41 101.393C297.775 101.48 298.108 101.622 298.41 101.821C298.711 102.017 298.953 102.283 299.135 102.621C299.321 102.96 299.414 103.382 299.414 103.889V109H297.684V107.951H297.624C297.515 108.163 297.361 108.362 297.162 108.548C296.966 108.73 296.719 108.877 296.421 108.99C296.126 109.099 295.78 109.154 295.382 109.154ZM295.849 107.832C296.211 107.832 296.524 107.76 296.789 107.618C297.054 107.472 297.258 107.28 297.4 107.041C297.546 106.803 297.619 106.542 297.619 106.261V105.361C297.563 105.407 297.467 105.45 297.331 105.49C297.198 105.53 297.049 105.565 296.883 105.594C296.718 105.624 296.554 105.651 296.391 105.674C296.229 105.697 296.088 105.717 295.969 105.734C295.7 105.77 295.46 105.83 295.248 105.913C295.036 105.996 294.868 106.112 294.746 106.261C294.623 106.406 294.562 106.595 294.562 106.827C294.562 107.159 294.683 107.409 294.925 107.578C295.166 107.747 295.475 107.832 295.849 107.832ZM305.037 101.364V102.756H300.647V101.364H305.037ZM301.731 99.5341H303.53V106.703C303.53 106.945 303.567 107.131 303.64 107.26C303.716 107.386 303.815 107.472 303.938 107.518C304.061 107.565 304.197 107.588 304.346 107.588C304.458 107.588 304.561 107.58 304.654 107.563C304.75 107.547 304.823 107.532 304.873 107.518L305.176 108.925C305.08 108.959 304.942 108.995 304.763 109.035C304.588 109.075 304.372 109.098 304.117 109.104C303.666 109.118 303.26 109.05 302.899 108.901C302.538 108.748 302.251 108.513 302.039 108.195C301.83 107.876 301.727 107.479 301.731 107.001V99.5341ZM309.841 109.149C309.075 109.149 308.414 108.99 307.857 108.672C307.303 108.35 306.877 107.896 306.579 107.31C306.281 106.72 306.132 106.025 306.132 105.227C306.132 104.441 306.281 103.752 306.579 103.158C306.881 102.562 307.302 102.098 307.842 101.766C308.382 101.432 309.017 101.264 309.746 101.264C310.217 101.264 310.661 101.34 311.078 101.493C311.499 101.642 311.871 101.874 312.192 102.189C312.517 102.504 312.772 102.905 312.958 103.392C313.143 103.876 313.236 104.453 313.236 105.122V105.674H306.977V104.461H311.511C311.508 104.116 311.433 103.81 311.287 103.541C311.141 103.269 310.938 103.056 310.676 102.9C310.417 102.744 310.116 102.666 309.771 102.666C309.403 102.666 309.08 102.756 308.801 102.935C308.523 103.11 308.306 103.342 308.15 103.631C307.998 103.916 307.92 104.229 307.917 104.57V105.629C307.917 106.073 307.998 106.455 308.16 106.773C308.323 107.088 308.55 107.33 308.841 107.499C309.133 107.664 309.474 107.747 309.865 107.747C310.127 107.747 310.364 107.711 310.576 107.638C310.788 107.562 310.972 107.451 311.128 107.305C311.284 107.159 311.402 106.978 311.481 106.763L313.162 106.952C313.056 107.396 312.853 107.784 312.555 108.115C312.26 108.443 311.882 108.698 311.422 108.881C310.961 109.06 310.434 109.149 309.841 109.149Z" fill="white"/>
<rect x="298.042" y="294.217" width="13.9582" height="12.3803" fill="#D9D9D9"/>
<line y1="-0.5" x2="18.6575" y2="-0.5" transform="matrix(-0.748129 -0.663554 0.244636 -0.969615 312 306.597)" stroke="black"/>
<path d="M298 306.676L311.982 294.147" stroke="black"/>
<rect x="112" y="388" width="120" height="107" fill="#D9D9D9"/>
<line x1="131.356" y1="399.648" x2="219.356" y2="488.648" stroke="black"/>
<line x1="127.691" y1="470.607" x2="202.691" y2="411.607" stroke="black"/>
</svg>
